<?xml version="1.0" ?><svg id="Layer_1" style="enable-background:new 0 0 100 100;" version="1.1" viewBox="0 0 100 100" xml:space="preserve" xmlns="http://www.w3.org/2000/svg" xmlns:xlink="http://www.w3.org/1999/xlink"><path d="M89,10H11c-0.553,0-1,0.448-1,1v78.001c0,0.552,0.447,1,1,1h78c0.553,0,1-0.448,1-1V11C90,10.447,89.553,10,89,10z   M63.969,19.369c0.37-1.847,0.748-3.775,0.781-7.37h11.291c-0.033,3.389-0.376,5.145-0.743,6.977  c-0.161,0.804-0.323,1.629-0.459,2.591c-0.554-0.02-1.135-0.034-1.786-0.034c-3.94,0-5.942,0.4-7.879,0.788  c-0.572,0.114-1.141,0.226-1.747,0.327C63.569,21.387,63.765,20.389,63.969,19.369z M63.27,24.7c0.84-0.127,1.574-0.273,2.298-0.418  c1.925-0.385,3.744-0.749,7.486-0.749c0.571,0,1.085,0.011,1.574,0.027c-0.071,0.939-0.117,2.005-0.117,3.293  c0,3.94,0.4,5.943,0.788,7.879c0.01,0.049,0.019,0.098,0.029,0.147c-0.686-0.033-1.428-0.054-2.274-0.054  c-3.94,0-5.942,0.4-7.879,0.788c-0.308,0.062-0.616,0.122-0.927,0.181c-0.09-0.506-0.185-0.982-0.279-1.453  c-0.385-1.925-0.749-3.744-0.749-7.487C63.22,26.048,63.239,25.347,63.27,24.7z M50.678,19.369c0.37-1.847,0.748-3.775,0.782-7.37  H62.75c-0.033,3.389-0.376,5.145-0.743,6.977c-0.231,1.154-0.465,2.34-0.617,3.937c-1.014,0.095-2.199,0.156-3.702,0.156  c-3.742,0-5.561-0.364-7.486-0.748c-0.009-0.002-0.019-0.004-0.028-0.006C50.312,21.207,50.492,20.299,50.678,19.369z   M49.996,24.319c1.881,0.375,3.877,0.751,7.693,0.751c1.413,0,2.57-0.053,3.571-0.137c-0.023,0.591-0.04,1.215-0.04,1.92  c0,3.94,0.4,5.943,0.788,7.879c0.091,0.456,0.181,0.907,0.265,1.377c-1.197,0.15-2.623,0.252-4.584,0.252  c-3.257,0-5.056-0.276-6.738-0.601c-0.088-0.493-0.181-0.96-0.273-1.42c-0.385-1.925-0.749-3.744-0.749-7.487  C49.929,25.891,49.953,25.06,49.996,24.319z M37.387,19.369c0.37-1.847,0.748-3.775,0.782-7.37h11.291  c-0.033,3.389-0.376,5.145-0.743,6.977c-0.182,0.91-0.366,1.842-0.511,2.976c-1.467-0.237-3.233-0.419-5.884-0.419  c-2.354,0-4.009,0.144-5.379,0.342C37.071,20.963,37.226,20.171,37.387,19.369z M36.732,23.93c1.402-0.228,3.05-0.397,5.59-0.397  c2.604,0,4.27,0.177,5.695,0.414c-0.055,0.846-0.089,1.792-0.089,2.905c0,3.94,0.4,5.943,0.788,7.879  c0.041,0.206,0.082,0.412,0.122,0.618c-1.593-0.287-3.477-0.526-6.517-0.526c-2.024,0-3.533,0.106-4.788,0.262  c-0.049-0.252-0.098-0.5-0.148-0.746c-0.385-1.925-0.749-3.744-0.749-7.487C36.638,25.715,36.674,24.769,36.732,23.93z   M24.096,19.369c0.37-1.847,0.748-3.775,0.782-7.37h11.291c-0.033,3.389-0.376,5.145-0.743,6.977  c-0.197,0.985-0.397,1.991-0.547,3.258c-0.146,0.029-0.293,0.058-0.437,0.086c-1.926,0.385-3.745,0.748-7.488,0.748  c-1.369,0-2.476-0.049-3.43-0.13C23.667,21.538,23.877,20.465,24.096,19.369z M23.387,24.933c1,0.084,2.155,0.136,3.567,0.136  c3.853,0,5.852-0.383,7.749-0.761c-0.041,0.754-0.065,1.59-0.065,2.545c0,3.94,0.4,5.943,0.788,7.879  c0.044,0.222,0.088,0.442,0.131,0.664c-0.381,0.071-0.751,0.143-1.115,0.216c-1.926,0.385-3.745,0.749-7.488,0.749  c-0.944,0-1.764-0.023-2.496-0.064c-0.114-0.698-0.238-1.335-0.363-1.957c-0.385-1.925-0.749-3.744-0.749-7.487  C23.347,26.142,23.363,25.519,23.387,24.933z M12,12h10.877c-0.033,3.389-0.376,5.145-0.743,6.977  c-0.221,1.101-0.443,2.236-0.595,3.725c-0.735-0.115-1.4-0.246-2.074-0.381c-1.864-0.373-3.808-0.754-7.466-0.782V12z M12,23.538  c3.454,0.027,5.223,0.374,7.073,0.743c0.731,0.146,1.472,0.294,2.323,0.422c-0.029,0.653-0.049,1.353-0.049,2.149  c0,3.94,0.4,5.943,0.788,7.879c0.091,0.457,0.181,0.909,0.265,1.381c-1.102-0.137-2.009-0.316-2.934-0.501  c-1.864-0.373-3.808-0.754-7.466-0.782V23.538z M12,50.12c3.454,0.027,5.223,0.374,7.073,0.743c0.848,0.17,1.72,0.34,2.751,0.48  c-0.265,1.536-0.478,3.373-0.478,6.241c0,2.146,0.121,3.707,0.291,5.006c-0.775-0.118-1.468-0.256-2.172-0.397  c-1.864-0.373-3.808-0.754-7.466-0.782V50.12z M22.135,80.441c-0.377,1.881-0.762,3.839-0.784,7.56H12V76.702  c3.453,0.027,5.223,0.374,7.073,0.744c1.044,0.209,2.118,0.419,3.494,0.571C22.441,78.895,22.29,79.662,22.135,80.441z   M22.779,76.03c-1.277-0.141-2.284-0.339-3.313-0.545c-1.864-0.373-3.808-0.754-7.466-0.782V63.411  c3.454,0.027,5.223,0.374,7.073,0.743c0.89,0.178,1.803,0.357,2.902,0.5c0.053,0.274,0.106,0.543,0.16,0.81  c0.385,1.926,0.749,3.745,0.749,7.488C22.884,74.161,22.843,75.154,22.779,76.03z M22.2,49.377  c-1.011-0.133-1.866-0.301-2.734-0.474c-1.864-0.373-3.808-0.754-7.466-0.782V36.829c3.454,0.027,5.223,0.374,7.073,0.743  c1.075,0.215,2.182,0.431,3.618,0.583c0.117,1.091,0.193,2.375,0.193,4.062C22.884,45.748,22.559,47.567,22.2,49.377z   M23.818,51.546c0.903,0.064,1.919,0.106,3.136,0.106c3.941,0,5.944-0.4,7.881-0.788c0.127-0.025,0.254-0.05,0.38-0.075  c-0.309,1.654-0.578,3.575-0.578,6.796c0,1.886,0.093,3.321,0.231,4.525c-0.142,0.028-0.286,0.056-0.427,0.084  c-1.926,0.385-3.745,0.749-7.488,0.749c-1.295,0-2.349-0.046-3.267-0.119c-0.199-1.328-0.34-2.911-0.34-5.239  C23.347,54.773,23.552,53.047,23.818,51.546z M35.426,80.441c-0.376,1.881-0.762,3.839-0.784,7.56H23.351  c0.021-3.518,0.372-5.3,0.745-7.167c0.165-0.823,0.33-1.668,0.468-2.659c0.716,0.036,1.498,0.059,2.391,0.059  c3.941,0,5.944-0.4,7.881-0.788c0.373-0.075,0.745-0.147,1.125-0.218C35.819,78.459,35.626,79.439,35.426,80.441z M36.122,75.168  c-0.59,0.101-1.14,0.209-1.68,0.317c-1.926,0.385-3.745,0.749-7.488,0.749c-0.817,0-1.528-0.02-2.183-0.051  c0.068-0.925,0.112-1.971,0.112-3.23c0-3.941-0.4-5.944-0.788-7.88c-0.015-0.073-0.029-0.146-0.043-0.219  c0.845,0.054,1.79,0.089,2.902,0.089c3.941,0,5.944-0.4,7.881-0.788c0.109-0.022,0.218-0.043,0.326-0.065  c0.086,0.476,0.175,0.928,0.264,1.375c0.385,1.926,0.749,3.745,0.749,7.488C36.175,73.782,36.154,74.505,36.122,75.168z   M35.626,48.674c-0.405,0.075-0.798,0.152-1.184,0.229c-1.926,0.385-3.745,0.749-7.488,0.749c-1.061,0-1.955-0.032-2.754-0.082  c0.352-1.787,0.683-3.766,0.683-7.351c0-1.577-0.066-2.835-0.168-3.911c0.677,0.032,1.406,0.053,2.238,0.053  c3.941,0,5.944-0.4,7.881-0.788c0.349-0.07,0.698-0.138,1.052-0.204c0.17,1.251,0.288,2.74,0.288,4.85  C36.175,45.296,35.927,47.069,35.626,48.674z M37.322,50.423c1.281-0.181,2.806-0.308,5-0.308c2.925,0,4.672,0.223,6.216,0.504  c-0.323,1.692-0.609,3.635-0.609,6.966c0,1.737,0.08,3.084,0.201,4.228c-1.452-0.23-3.203-0.406-5.807-0.406  c-2.41,0-4.091,0.151-5.48,0.355c-0.123-1.114-0.205-2.432-0.205-4.177C36.638,54.053,36.962,52.234,37.322,50.423z M48.717,80.441  c-0.377,1.881-0.762,3.839-0.784,7.56H36.642c0.021-3.518,0.372-5.3,0.745-7.167c0.23-1.149,0.462-2.331,0.615-3.917  c1.143-0.132,2.502-0.219,4.32-0.219c3.374,0,5.184,0.296,6.918,0.636C49.1,78.517,48.911,79.466,48.717,80.441z M49.407,75.328  c-1.72-0.331-3.676-0.631-7.085-0.631c-1.716,0-3.052,0.078-4.188,0.196c0.024-0.597,0.041-1.228,0.041-1.941  c0-3.941-0.4-5.944-0.788-7.88c-0.088-0.441-0.174-0.878-0.256-1.333c1.319-0.195,2.89-0.333,5.192-0.333  c2.847,0,4.58,0.211,6.094,0.481c0.096,0.552,0.198,1.069,0.3,1.578c0.385,1.926,0.749,3.745,0.749,7.488  C49.466,73.847,49.444,74.626,49.407,75.328z M48.92,48.656c-1.61-0.293-3.505-0.541-6.598-0.541c-1.928,0-3.389,0.097-4.608,0.24  c0.257-1.516,0.461-3.333,0.461-6.137c0-2.232-0.13-3.831-0.312-5.16c1.171-0.141,2.569-0.235,4.46-0.235  c3.34,0,5.148,0.29,6.867,0.626c0.164,1.234,0.277,2.704,0.277,4.768C49.466,45.284,49.22,47.056,48.92,48.656z M50.501,51.001  c1.745,0.339,3.712,0.651,7.187,0.651c1.615,0,2.894-0.069,3.987-0.176c-0.254,1.511-0.456,3.321-0.456,6.109  c0,2.247,0.132,3.854,0.316,5.187c-1.046,0.104-2.27,0.171-3.847,0.171c-3.742,0-5.561-0.364-7.486-0.749  c-0.006-0.001-0.013-0.003-0.019-0.004c-0.152-1.201-0.255-2.633-0.255-4.606C49.929,54.425,50.189,52.639,50.501,51.001z   M62.008,80.441c-0.376,1.881-0.762,3.839-0.784,7.56H49.933c0.021-3.518,0.372-5.3,0.745-7.167c0.19-0.949,0.382-1.917,0.53-3.119  c1.585,0.284,3.464,0.519,6.481,0.519c2.007,0,3.509-0.104,4.757-0.258C62.318,78.871,62.166,79.651,62.008,80.441z M62.659,75.93  c-1.275,0.179-2.793,0.304-4.97,0.304c-2.979,0-4.736-0.231-6.301-0.52c0.049-0.809,0.079-1.713,0.079-2.761  c0-3.941-0.4-5.944-0.788-7.88c-0.052-0.259-0.103-0.516-0.153-0.776c1.739,0.337,3.704,0.646,7.164,0.646  c1.711,0,3.044-0.078,4.177-0.195c0.047,0.242,0.095,0.481,0.142,0.718c0.385,1.926,0.749,3.745,0.749,7.488  C62.757,74.116,62.719,75.078,62.659,75.93z M62.063,49.427c-1.153,0.136-2.529,0.225-4.374,0.225c-3.3,0-5.104-0.283-6.805-0.614  c0.311-1.659,0.582-3.583,0.582-6.819c0-1.808-0.086-3.196-0.215-4.369c1.576,0.28,3.448,0.511,6.438,0.511  c2.069,0,3.597-0.112,4.868-0.273c0.121,1.105,0.2,2.409,0.2,4.131C62.757,45.78,62.426,47.599,62.063,49.427z M63.755,51.202  c0.641-0.107,1.233-0.223,1.813-0.339c1.925-0.385,3.744-0.749,7.486-0.749c0.805,0,1.507,0.02,2.154,0.05  c-0.357,1.805-0.697,3.788-0.697,7.419c0,1.546,0.063,2.787,0.161,3.849c-0.505-0.016-1.035-0.027-1.618-0.027  c-3.94,0-5.942,0.4-7.879,0.788c-0.544,0.109-1.084,0.215-1.658,0.312c-0.175-1.265-0.297-2.772-0.297-4.922  C63.22,54.554,63.459,52.788,63.755,51.202z M75.299,80.441c-0.377,1.881-0.762,3.839-0.784,7.56H63.224  c0.021-3.518,0.372-5.3,0.745-7.167c0.193-0.967,0.39-1.95,0.538-3.181c0.361-0.068,0.714-0.137,1.06-0.206  c1.926-0.385,3.744-0.749,7.486-0.749c1.094,0,2.009,0.034,2.825,0.087C75.736,78.229,75.522,79.323,75.299,80.441z M76.011,74.79  c-0.859-0.057-1.82-0.093-2.957-0.093c-3.94,0-5.942,0.4-7.879,0.788c-0.163,0.033-0.325,0.064-0.487,0.096  c0.044-0.774,0.069-1.64,0.069-2.629c0-3.941-0.4-5.944-0.788-7.88c-0.04-0.199-0.079-0.396-0.118-0.595  c0.604-0.103,1.166-0.213,1.716-0.323c1.925-0.385,3.744-0.749,7.486-0.749c0.692,0,1.299,0.016,1.872,0.039  c0.116,0.724,0.245,1.379,0.373,2.02c0.385,1.926,0.749,3.745,0.749,7.488C76.048,73.63,76.032,74.227,76.011,74.79z M75.589,48.18  c-0.751-0.041-1.585-0.065-2.536-0.065c-3.94,0-5.942,0.4-7.879,0.788c-0.336,0.067-0.671,0.133-1.011,0.197  c0.316-1.673,0.593-3.605,0.593-6.881c0-1.846-0.09-3.257-0.223-4.445c0.352-0.066,0.696-0.133,1.034-0.201  c1.925-0.385,3.744-0.749,7.486-0.749c1.01,0,1.872,0.028,2.641,0.075c0.206,1.345,0.353,2.944,0.353,5.32  C76.048,44.984,75.848,46.697,75.589,48.18z M88,88.001H76.515c0.021-3.518,0.372-5.3,0.745-7.167  c0.227-1.133,0.456-2.3,0.608-3.853c0.983,0.132,1.82,0.296,2.67,0.466c1.863,0.373,3.806,0.754,7.462,0.782V88.001z M88,76.229  c-3.451-0.027-5.22-0.374-7.069-0.744c-0.896-0.179-1.816-0.36-2.927-0.504c0.026-0.621,0.044-1.281,0.044-2.029  c0-3.941-0.4-5.944-0.788-7.88c-0.098-0.491-0.195-0.977-0.285-1.488c1.397,0.142,2.469,0.352,3.563,0.57  c1.863,0.373,3.806,0.754,7.462,0.782V76.229z M88,62.937c-3.451-0.027-5.22-0.374-7.069-0.743  c-1.226-0.245-2.482-0.495-4.237-0.646c-0.11-1.07-0.183-2.327-0.183-3.964c0-3.599,0.337-5.419,0.705-7.266  c1.281,0.141,2.291,0.339,3.322,0.545c1.863,0.373,3.806,0.754,7.462,0.782V62.937z M88,49.646c-3.451-0.027-5.22-0.374-7.069-0.743  c-1.006-0.201-2.037-0.405-3.342-0.555c0.256-1.515,0.459-3.329,0.459-6.129c0-2.214-0.129-3.806-0.308-5.129  c1.04,0.135,1.912,0.306,2.798,0.483c1.863,0.373,3.806,0.754,7.462,0.782V49.646z M88,36.355c-3.451-0.027-5.22-0.374-7.069-0.743  c-1.053-0.211-2.138-0.423-3.533-0.575c-0.046-0.235-0.092-0.467-0.138-0.697c-0.385-1.925-0.749-3.744-0.749-7.487  c0-1.254,0.044-2.279,0.113-3.177c1.58,0.141,2.729,0.37,3.915,0.607c1.863,0.373,3.806,0.754,7.462,0.782V36.355z M88,23.064  c-3.451-0.027-5.22-0.374-7.069-0.743c-1.191-0.238-2.411-0.481-4.089-0.633c0.123-0.835,0.269-1.571,0.418-2.319  c0.37-1.847,0.748-3.775,0.782-7.37H88V23.064z" style="fill: rgb(255,255, 255);"/></svg>